HIERARCHY
ROOT Hips
{
	OFFSET 46.809299 -31.412016 98.876190
	CHANNELS 6 Xposition Yposition Zposition Xrotation Yrotation Zrotation
	JOINT spine
	{
		OFFSET 0.000000 -0.477352 8.301041
		CHANNELS 3 Xrotation Yrotation Zrotation
		JOINT spine1
		{
			OFFSET 0.000000 -0.000002 10.456497
			CHANNELS 3 Xrotation Yrotation Zrotation
			JOINT spine2
			{
				OFFSET 0.000000 -0.000002 10.019203
				CHANNELS 3 Xrotation Yrotation Zrotation
				JOINT Neck
				{
					OFFSET 0.000000 -1.226416 25.723503
					CHANNELS 3 Xrotation Yrotation Zrotation
					JOINT Head
					{
						OFFSET 0.000000 0.000000 7.771744
						CHANNELS 3 Xrotation Yrotation Zrotation
						End Site
						{
							OFFSET 0.000000 6.203938 18.811996
						}
					}
				}
				JOINT RightShoulder
				{
					OFFSET -4.218800 0.587437 10.820000
					CHANNELS 3 Xrotation Yrotation Zrotation
					JOINT RightArm
					{
						OFFSET 0.000000 -0.000002 14.191406
						CHANNELS 3 Xrotation Yrotation Zrotation
						JOINT RightArmRoll
						{
							OFFSET 0.000000 -0.000002 7.164078
							CHANNELS 3 Xrotation Yrotation Zrotation
							JOINT RightForeArm
							{
								OFFSET 0.000000 -0.000002 20.866501
								CHANNELS 3 Xrotation Yrotation Zrotation
								JOINT RightForeArmRoll
								{
									OFFSET 0.000000 -0.000002 8.039215
									CHANNELS 3 Xrotation Yrotation Zrotation
									JOINT RightHand
									{
										OFFSET 0.000000 -0.000002 16.132996
										CHANNELS 3 Xrotation Yrotation Zrotation
										End Site
										{
											OFFSET 0.000000 -0.000002 0.100006
										}
									}
								}
							}
						}
					}
				}
				JOINT LeftShoulder
				{
					OFFSET 4.218800 0.587437 10.820000
					CHANNELS 3 Xrotation Yrotation Zrotation
					JOINT LeftArm
					{
						OFFSET 0.000000 -0.000002 14.191406
						CHANNELS 3 Xrotation Yrotation Zrotation
						JOINT LeftArmRoll
						{
							OFFSET 0.000000 -0.000002 7.164078
							CHANNELS 3 Xrotation Yrotation Zrotation
							JOINT LeftForeArm
							{
								OFFSET 0.000000 -0.000002 20.866501
								CHANNELS 3 Xrotation Yrotation Zrotation
								JOINT LeftForeArmRoll
								{
									OFFSET 0.000000 -0.000002 8.039215
									CHANNELS 3 Xrotation Yrotation Zrotation
									JOINT LeftHand
									{
										OFFSET 0.000000 -0.000002 16.132996
										CHANNELS 3 Xrotation Yrotation Zrotation
										End Site
										{
											OFFSET 0.000000 -0.000002 0.100006
										}
									}
								}
							}
						}
					}
				}
			}
		}
	}
	JOINT RightUpLeg
	{
		OFFSET -7.357731 1.131821 -1.349213
		CHANNELS 3 Xrotation Yrotation Zrotation
		JOINT RightUpLegRoll
		{
			OFFSET 0.000000 -0.000004 18.916801
			CHANNELS 3 Xrotation Yrotation Zrotation
			JOINT RightLeg
			{
				OFFSET 0.000000 0.000004 -23.425598
				CHANNELS 3 Xrotation Yrotation Zrotation
				JOINT RightLegRoll
				{
					OFFSET 0.000000 -0.000004 23.502304
					CHANNELS 3 Xrotation Yrotation Zrotation
					JOINT RightFoot
					{
						OFFSET 0.000000 -0.000004 19.561714
						CHANNELS 3 Xrotation Yrotation Zrotation
						JOINT RightToeBase
						{
							OFFSET 0.000000 -0.000002 16.352600
							CHANNELS 3 Xrotation Yrotation Zrotation
							End Site
							{
								OFFSET 0.006931 0.912834 7.919434
							}
						}
					}
				}
			}
		}
	}
	JOINT LeftUpLeg
	{
		OFFSET 7.357731 1.131821 -1.349213
		CHANNELS 3 Xrotation Yrotation Zrotation
		JOINT LeftUpLegRoll
		{
			OFFSET 0.000000 -0.000004 18.916901
			CHANNELS 3 Xrotation Yrotation Zrotation
			JOINT LeftLeg
			{
				OFFSET 0.000000 -0.000004 23.425507
				CHANNELS 3 Xrotation Yrotation Zrotation
				JOINT LeftLegRoll
				{
					OFFSET 0.000000 -0.000004 23.719498
					CHANNELS 3 Xrotation Yrotation Zrotation
					JOINT LeftFoot
					{
						OFFSET 0.000000 -0.000004 19.344406
						CHANNELS 3 Xrotation Yrotation Zrotation
						JOINT LeftToeBase
						{
							OFFSET 0.000000 -0.000002 16.352600
							CHANNELS 3 Xrotation Yrotation Zrotation
							End Site
							{
								OFFSET -0.031063 0.912834 7.919434
							}
						}
					}
				}
			}
		}
	}
}
MOTION
Frames: 12
Frame Time: 0.041667
46.960201 -31.549414 98.946693 0.448442 0.330389 -0.555518 -2.589060 0.022731 0.071264 -1.175460 0.056747 0.148820 0.469609 0.058572 0.148053 21.291489 -2.879461 0.103817 0.763028 1.810480 -0.173852 -15.586514 -40.044385 -17.965981 44.664687 -39.761253 83.611604 -0.000001 -0.000000 -0.000001 1.726923 5.680357 2.210292 0.000007 0.000013 -3.008259 -5.000216 -8.000103 -0.000175 -12.484946 42.677184 13.985582 45.429661 44.565465 -83.332317 -0.000001 0.000004 -0.000013 1.449969 -7.093131 0.044221 0.000009 -0.000010 3.000010 -5.000195 8.000107 0.000159 -2.118168 -176.116646 0.192004 -179.999991 0.000005 -1.043006 174.838855 -3.360351 -0.572336 0.000003 0.000004 0.061239 69.149832 6.915441 2.067545 25.456953 -7.355616 0.000001 -3.244451 174.179277 0.682984 -0.000005 -0.000005 -1.121570 -10.897180 3.160828 1.054046 -0.000008 -0.000002 -0.161831 69.453660 -6.918002 -2.022142 25.456952 7.355613 -0.000000 
46.965099 -31.546003 98.945099 0.444829 0.332476 -0.551818 -2.588161 0.022586 0.072020 -1.174640 0.056396 0.150091 0.470432 0.058242 0.149318 21.282680 -2.889970 0.100265 0.770824 1.816986 -0.178219 -15.590957 -40.048643 -17.972161 44.650651 -39.764596 83.594125 -0.000001 0.000001 0.000001 1.732598 5.672945 2.208044 0.000005 0.000013 -3.008261 -5.000218 -8.000108 -0.000174 -12.474255 42.677655 13.971740 45.427315 44.564324 -83.331347 -0.000001 0.000003 -0.000015 1.446489 -7.091962 0.043911 0.000011 -0.000011 3.000013 -5.000196 8.000104 0.000160 -2.114083 -176.119638 0.188862 -179.999991 0.000005 -1.044003 174.839688 -3.356369 -0.571928 0.000002 0.000004 0.061245 69.150877 6.915389 2.067670 25.456952 -7.355615 0.000000 -3.242549 174.178280 0.682553 -0.000005 -0.000004 -1.121600 -10.898265 3.159255 1.054092 -0.000008 -0.000002 -0.162310 69.453127 -6.917978 -2.021572 25.456957 7.355613 -0.000001 
46.971104 -31.541914 98.943985 0.441342 0.334556 -0.548261 -2.587281 0.022457 0.072761 -1.173871 0.056042 0.151342 0.471204 0.057910 0.150563 21.274064 -2.899983 0.096837 0.778310 1.823062 -0.182402 -15.595210 -40.052625 -17.978028 44.637059 -39.767906 83.577255 -0.000001 0.000001 -0.000003 1.737932 5.665871 2.205886 0.000006 0.000012 -3.008264 -5.000217 -8.000108 -0.000173 -12.463780 42.678212 13.958160 45.424740 44.563303 -83.330138 -0.000000 0.000006 -0.000013 1.443131 -7.090613 0.043631 0.000010 -0.000011 3.000010 -5.000198 8.000103 0.000166 -2.110315 -176.122630 0.186151 -179.999991 0.000005 -1.044003 174.840207 -3.353392 -0.571629 0.000002 0.000004 0.061252 69.151834 6.915402 2.067613 25.456952 -7.355616 0.000001 -3.240934 174.177255 0.682153 -0.000005 -0.000005 -1.121620 -10.899650 3.157680 1.054146 -0.000008 -0.000002 -0.162772 69.452703 -6.917960 -2.021095 25.456957 7.355613 -0.000000 
46.968899 -31.542709 98.946396 0.437989 0.336646 -0.544860 -2.586430 0.022355 0.073489 -1.173111 0.055707 0.152583 0.471958 0.057595 0.151798 21.265652 -2.909854 0.093612 0.785502 1.829038 -0.186376 -15.599213 -40.056655 -17.983589 44.623856 -39.770931 83.561074 -0.000000 0.000001 -0.000004 1.742907 5.659089 2.203853 0.000006 0.000013 -3.008258 -5.000215 -8.000110 -0.000174 -12.453714 42.678423 13.945102 45.422503 44.562432 -83.329189 -0.000002 0.000005 -0.000014 1.439940 -7.089215 0.043372 0.000010 -0.000011 3.000009 -5.000197 8.000106 0.000163 -2.106900 -176.125608 0.184033 -179.999991 0.000005 -1.044003 174.840398 -3.351393 -0.571438 0.000002 0.000004 0.061258 69.152674 6.915412 2.067661 25.456952 -7.355617 0.000002 -3.239695 174.176244 0.681789 -0.000005 -0.000004 -1.121640 -10.901537 3.156078 1.054219 -0.000008 -0.000002 -0.163207 69.452594 -6.917957 -2.020501 25.456952 7.355613 -0.000001 
46.967400 -31.535614 98.947098 0.434778 0.338764 -0.541630 -2.585590 0.022288 0.074205 -1.172340 0.055410 0.153820 0.472733 0.057317 0.153031 21.257236 -2.919922 0.090650 0.792411 1.835214 -0.190116 -15.603277 -40.060965 -17.989170 44.610906 -39.773534 83.545194 -0.000001 0.000001 -0.000000 1.747489 5.652580 2.201940 0.000006 0.000013 -3.008260 -5.000216 -8.000105 -0.000173 -12.444273 42.677860 13.932808 45.421270 44.561889 -83.329066 -0.000001 0.000004 -0.000016 1.436993 -7.087905 0.043150 0.000010 -0.000011 3.000007 -5.000195 8.000107 0.000165 -2.103886 -176.128599 0.182672 -179.999991 0.000005 -1.044003 174.840152 -3.350398 -0.571363 0.000002 0.000004 0.061264 69.153527 6.915420 2.067609 25.456957 -7.355617 0.000001 -3.238884 174.175247 0.681464 -0.000005 -0.000004 -1.121660 -10.903923 3.154442 1.054303 -0.000008 -0.000002 -0.163605 69.452792 -6.917930 -2.020084 25.456953 7.355613 0.000000 
46.967800 -31.535912 98.950294 0.431722 0.340925 -0.538582 -2.584772 0.022266 0.074912 -1.171510 0.055170 0.155063 0.473566 0.057097 0.154270 21.248835 -2.930530 0.088016 0.799040 1.841911 -0.193599 -15.607221 -40.065893 -17.994661 44.598045 -39.775484 83.529648 -0.000001 0.000004 0.000004 1.751661 5.646329 2.200157 0.000006 0.000012 -3.008260 -5.000216 -8.000107 -0.000175 -12.435685 42.676207 13.921566 45.421687 44.561790 -83.330412 -0.000001 0.000002 -0.000016 1.434320 -7.086811 0.042962 0.000010 -0.000011 3.000013 -5.000197 8.000106 0.000163 -2.101298 -176.130594 0.182194 -179.999991 0.000005 -1.044003 174.839469 -3.350395 -0.570406 0.000002 0.000004 0.061271 69.154163 6.915415 2.067670 25.456953 -7.355615 0.000001 -3.238581 174.174263 0.681185 -0.000005 -0.000004 -1.121690 -10.907010 3.152750 1.054405 -0.000009 -0.000002 -0.163958 69.453427 -6.917923 -2.019642 25.456957 7.355613 0.000000 
46.966000 -31.541212 98.951187 0.428829 0.343146 -0.535728 -2.583949 0.022297 0.075610 -1.170581 0.055007 0.156320 0.474492 0.056953 0.155524 21.240352 -2.942028 0.085778 0.805403 1.849437 -0.196800 -15.611325 -40.071494 -18.000303 44.585218 -39.776532 83.514130 -0.000001 -0.000001 -0.000001 1.755402 5.640300 2.198522 0.000005 0.000011 -3.008262 -5.000216 -8.000106 -0.000172 -12.428187 42.673137 13.911646 45.424361 44.562224 -83.333854 -0.000001 0.000006 -0.000014 1.431991 -7.086057 0.042798 0.000008 -0.000012 3.000010 -5.000197 8.000107 0.000166 -2.099186 -176.131577 0.182759 -179.999991 0.000005 -1.044003 174.838281 -3.351382 -0.570565 0.000002 0.000004 0.061277 69.154682 6.915409 2.067735 25.456957 -7.355617 0.000001 -3.238867 174.173253 0.680958 -0.000005 -0.000004 -1.121710 -10.910796 3.151011 1.054524 -0.000009 -0.000002 -0.164255 69.454384 -6.917927 -2.019384 25.456957 7.355613 0.000000 
46.965698 -31.538111 98.948486 0.426102 0.345443 -0.533084 -2.583129 0.022392 0.076302 -1.169521 0.054942 0.157599 0.475549 0.056906 0.156802 21.231588 -2.954763 0.084000 0.811508 1.858114 -0.199696 -15.615551 -40.078170 -18.006146 44.572182 -39.776580 83.498591 0.000001 -0.000001 0.000000 1.758679 5.634461 2.197029 0.000006 0.000013 -3.008258 -5.000217 -8.000105 -0.000175 -12.421992 42.668236 13.903325 45.429962 44.563518 -83.339960 -0.000002 0.000004 -0.000013 1.430045 -7.085797 0.042669 0.000010 -0.000011 3.000010 -5.000196 8.000108 0.000162 -2.097591 -176.132588 0.184570 -179.999991 0.000006 -1.044003 174.836519 -3.354367 -0.570938 0.000003 0.000004 0.061283 69.154900 6.915419 2.067725 25.456953 -7.355615 0.000001 -3.239795 174.172255 0.680788 -0.000005 -0.000005 -1.121730 -10.915383 3.149185 1.054657 -0.000007 -0.000002 -0.164487 69.455961 -6.917890 -2.019078 25.456959 7.355613 -0.000001 
46.972004 -31.535210 98.948692 0.423560 0.347833 -0.530660 -2.582309 0.022559 0.076988 -1.168300 0.054993 0.158909 0.476774 0.056974 0.158111 21.222465 -2.969075 0.082756 0.817363 1.868230 -0.202263 -15.619941 -40.086114 -18.012254 44.559044 -39.775374 83.482991 0.000001 0.000002 0.000002 1.761495 5.628809 2.195685 0.000006 0.000012 -3.008263 -5.000218 -8.000105 -0.000171 -12.417303 42.661054 13.896815 45.438947 44.565618 -83.349167 -0.000004 0.000005 -0.000016 1.428555 -7.086141 0.042577 0.000011 -0.000011 3.000011 -5.000198 8.000108 0.000162 -2.096539 -176.132588 0.187752 -179.999991 0.000005 -1.044003 174.834142 -3.359334 -0.570529 0.000003 0.000004 0.061289 69.154989 6.915389 2.067812 25.456955 -7.355616 0.000001 -3.241457 174.170275 0.680733 -0.000005 -0.000004 -1.121750 -10.920973 3.147290 1.054816 -0.000009 -0.000002 -0.164644 69.457976 -6.917905 -2.018954 25.456959 7.355614 -0.000001 
46.970001 -31.534611 98.945496 0.421217 0.350275 -0.528492 -2.581470 0.022799 0.077670 -1.166930 0.055133 0.160264 0.478139 0.057132 0.159468 21.213263 -2.984452 0.082026 0.822957 1.879466 -0.204462 -15.624497 -40.094737 -18.018490 44.546053 -39.773209 83.467787 0.000000 0.000001 0.000002 1.763711 5.623566 2.194581 0.000006 0.000013 -3.008263 -5.000216 -8.000107 -0.000171 -12.413974 42.652236 13.891976 45.450900 44.568432 -83.361018 -0.000002 0.000002 -0.000015 1.427479 -7.086894 0.042531 0.000011 -0.000011 3.000014 -5.000198 8.000104 0.000162 -2.096391 -176.131577 0.192984 -179.999991 0.000005 -1.044003 174.830576 -3.367273 -0.570460 0.000002 0.000004 0.061295 69.154880 6.915383 2.067820 25.456952 -7.355615 0.000002 -3.244033 174.168294 0.680842 -0.000005 -0.000004 -1.121770 -10.927764 3.145234 1.054993 -0.000007 -0.000002 -0.164715 69.460825 -6.917886 -2.018874 25.456959 7.355613 -0.000001 
46.964401 -31.527714 98.939186 0.419096 0.352719 -0.526587 -2.580630 0.023100 0.078346 -1.165491 0.055320 0.161668 0.479584 0.057335 0.160876 21.203863 -3.000123 0.081722 0.828294 1.891213 -0.206293 -15.628863 -40.103685 -18.024543 44.533585 -39.770382 83.453512 -0.000000 0.000001 -0.000000 1.765264 5.618941 2.193723 0.000006 0.000014 -3.008258 -5.000216 -8.000106 -0.000172 -12.411546 42.642223 13.888242 45.464389 44.571738 -83.374357 -0.000001 0.000003 -0.000016 1.426746 -7.087758 0.042557 0.000010 -0.000011 3.000014 -5.000195 8.000106 0.000167 -2.097349 -176.129596 0.200579 -179.999991 0.000006 -1.044003 174.825385 -3.377217 -0.571667 0.000002 0.000004 0.061301 69.154668 6.915372 2.067830 25.456953 -7.355614 0.000000 -3.247563 174.166327 0.681182 -0.000005 -0.000004 -1.121800 -10.935953 3.142987 1.055191 -0.000007 -0.000002 -0.164702 69.464410 -6.917861 -2.018946 25.456950 7.355613 -0.000001 
46.965900 -31.527510 98.940094 0.417170 0.355171 -0.524922 -2.579791 0.023456 0.079016 -1.163981 0.055550 0.163109 0.481093 0.057582 0.162323 21.194471 -3.016049 0.081812 0.833361 1.903369 -0.207788 -15.633140 -40.112830 -18.030431 44.521499 -39.767069 83.440022 -0.000001 0.000000 -0.000000 1.766218 5.614852 2.193099 0.000006 0.000013 -3.008262 -5.000215 -8.000108 -0.000169 -12.410000 42.631404 13.885602 45.479259 44.575399 -83.388776 -0.000001 0.000004 -0.000013 1.426314 -7.088726 0.042633 0.000010 -0.000010 3.000012 -5.000197 8.000107 0.000165 -2.099241 -176.126577 0.210143 -179.999991 0.000005 -1.044003 174.818883 -3.390122 -0.572222 0.000003 0.000004 0.061307 69.154470 6.915396 2.067846 25.456957 -7.355615 0.000001 -3.251917 174.164346 0.681708 -0.000005 -0.000004 -1.121820 -10.945242 3.140591 1.055405 -0.000008 -0.000002 -0.164616 69.468638 -6.917867 -2.019183 25.456953 7.355613 -0.000001 
